[IMG]http://img197.imageshack.us/img197/8866/ghostom.jpg[/IMG]
[code]
Ghost Rider Spirit of Vengeance 2012 TS READNFO XviD AC3-26K

Imdb: 
http://www.imdb.com/title/tt1071875/

Plot:
As Johnny Blaze hides out in Eastern Europe, he is called upon to stop the devil, who is trying to 

take human form.

Sources:
VIDEO-HINDHI CAM-TDT THNXS!
AUDIO-LittlebirD :) thnxs

Notes:
READNFO WELL.. THE VIDEO IS NOT SO GREAT FOR A FIRST CAM, HAS SOME PARTS MISSING! AND WAS RECORDED 

SLANTED... WITH ALL THAT!! NOT BAD FOR A FIRST CAM!! THNXS TO SIC FOR THIER WORK :)
ADDED FEW FILTERS TO THE VIDEO TO MAKE IT LOOK NICE AS IT WAS VERY DARK !

BOTTOM LINE TAKE IT OR LEAVE IT :)

Greetz:
Xtreme 

Encode|FYA|ILLUMANTI|CM8|RX|VISION|HDSCENE|NIGHTMAREZ|xTriLL|DTRG|CRYS|REMIXHD|BIDA|RX|REFILL|INSPiRAL

|SIC|ZOMBIESZ|HOPE|Anonymous|GooN
To all the people who have helped me :P you know who you are

Anything to offer email us @: 26k@hushmail.me

Video
ID                                       : 0
Format                                   : MPEG-4 Visual
Format profile                           : Advanced Simple@L5
Format settings, BVOP                    : 2
Format settings, QPel                    : No
Format settings, GMC                     : No warppoints
Format settings, Matrix                  : Default (H.263)
Codec ID                                 : XVID
Codec ID/Hint                            : XviD
Duration                                 : 1h 19mn
Bit rate                                 : 1 654 Kbps
Width                                    : 720 pixels
Height                                   : 306 pixels
Display aspect ratio                     : 2.35:1
Frame rate                               : 25.000 fps
Color space                              : YUV
Chroma subsampling                       : 4:2:0
Bit depth                                : 8 bits
Scan type                                : Progressive
Compression mode                         : Lossy
Bits/(Pixel*Frame)                       : 0.300
Stream size                              : 944 MiB (89%)
Writing library                          : XviD 64

Audio
ID                                       : 1
Format                                   : AC-3
Format/Info                              : Audio Coding 3
Mode extension                           : CM (complete main)
Codec ID                                 : 2000
Duration                                 : 1h 19mn
Source duration                          : 1h 19mn
Bit rate mode                            : Constant
Bit rate                                 : 192 Kbps
Channel(s)                               : 2 channels
Channel positions                        : Front: L R
Sampling rate                            : 44.1 KHz
Bit depth                                : 16 bits
Compression mode                         : Lossy
Stream size                              : 110 MiB (10%)
Alignment                                : Aligned on interleaves
Interleave, duration                     : 35 ms (0.87 video frame)

[/code]
Screens:
[IMG]http://i.imgur.com/WZinl.png[/IMG]
[IMG]http://i.imgur.com/Zx9wB.png[/IMG]
[IMG]http://i.imgur.com/n1PLg.png[/IMG]
[IMG]http://img718.imageshack.us/img718/7438/vlcsnap2012022015h54m42.png[/IMG]
[IMG]http://img29.imageshack.us/img29/5258/vlcsnap2012022015h55m23.png[/IMG]
[IMG]http://img820.imageshack.us/img820/915/vlcsnap2012022015h54m16.png[/IMG]
[IMG]http://img42.imageshack.us/img42/7770/vlcsnap2012022015h54m27.png[/IMG]
[IMG]http://img705.imageshack.us/img705/5118/vlcsnap2012022017h25m04.png[/IMG]
[IMG]http://img806.imageshack.us/img806/779/vlcsnap2012022017h26m49.png[/IMG]
[IMG]http://img37.imageshack.us/img37/3084/vlcsnap2012022017h25m18.png[/IMG]
[IMG]http://img141.imageshack.us/img141/638/vlcsnap2012022017h25m12.png[/IMG]

[img]http://img851.imageshack.us/img851/5503/26ks.jpg[/img]
Thank you smallz for banner!